<svg xmlns="http://www.w3.org/2000/svg" viewBox="186.66341926794507 117.44090256079801 176.67316146410985 136.37548687119843" role="img" aria-labelledby="unitflow-logo-dark-title">
  <title id="unitflow-logo-dark-title">Unitflow</title>
  <g data-paper-data="{&quot;isIcon&quot;:&quot;true&quot;,&quot;iconType&quot;:&quot;icon&quot;,&quot;rawIconId&quot;:&quot;T413VZvw-oL-U5hOB99-P009RR6NRrlN_Uvc0R30xd&quot;,&quot;source&quot;:&quot;ai&quot;,&quot;selectedEffects&quot;:{&quot;container&quot;:&quot;&quot;,&quot;transformation&quot;:&quot;&quot;,&quot;pattern&quot;:&quot;&quot;},&quot;isDetailed&quot;:false,&quot;iconStyle&quot;:&quot;standalone&quot;,&quot;bounds&quot;:{&quot;x&quot;:186.66341926794507,&quot;y&quot;:117.44090256079801,&quot;width&quot;:176.67316146410985,&quot;height&quot;:136.37548687119843},&quot;fillRule&quot;:&quot;evenodd&quot;,&quot;suitableAsStandaloneIcon&quot;:true}" fill-rule="evenodd">
    <path fill="#EEF0F5" d="M186.71741,163.44429c-0.10665,-24.35364 -0.05023,-44.65237 0.12463,-45.10748c0.43712,-1.13901 30.09965,-1.21899 31.23432,-0.08433c0.56363,0.56361 0.74406,10.48045 0.74406,40.838c0,24.51936 0.24428,41.39047 0.62935,43.43374c1.43784,7.62933 7.25204,14.72312 14.22358,17.35359c5.27093,1.98817 12.06579,1.48433 17.25303,-1.28114c4.8215,-2.5702 9.98566,-8.01504 13.88521,-14.64047c6.38469,-10.84801 15.86099,-19.59421 26.86296,-24.79315c9.35198,-4.4189 11.49996,-4.67134 38.13251,-4.47366c23.17416,0.17185 23.25165,0.17667 23.43901,1.49053c0.16634,1.16439 -12.69844,27.43361 -14.23271,29.06363c-0.34164,0.36265 -6.8145,0.74905 -15.59099,0.9302c-14.90875,0.30789 -15.03204,0.32166 -18.85204,2.08633c-4.64723,2.1466 -9.54932,7.07657 -14.57228,14.65459c-7.89968,11.9177 -16.79189,20.23684 -26.84504,25.1162c-7.52429,3.6516 -11.64356,4.66859 -20.58882,5.08151c-6.41947,0.29617 -8.45862,0.14361 -13.42889,-1.00459c-19.61108,-4.53186 -34.16331,-18.49146 -40.50259,-38.85264l-1.72184,-5.53128z" data-paper-data="{&quot;isPathIcon&quot;:true}" />
    <path fill="#E84A6A" d="M257.93648,150.12113c8.30881,-16.62255 23.55231,-28.34994 41.17866,-31.68077c5.97418,-1.12846 62.32161,-1.29587 63.42951,-0.18787c1.0559,1.05592 1.0559,29.07786 0,30.13376c-0.55585,0.55616 -7.59902,0.74406 -27.87099,0.74406c-17.46896,0 -28.29666,0.2449 -30.41295,0.68761c-10.4561,2.18737 -19.09966,11.76631 -20.13491,22.31505l-0.3902,3.96878l-4.32212,2.79027c-6.70566,4.32901 -13.77088,11.77581 -20.19896,21.28897c-3.12261,4.62174 -5.97728,8.58812 -6.34302,8.81438c-0.47044,0.29102 -0.59201,-6.18357 -0.41603,-22.13135c0.28034,-25.39757 0.48008,-26.73863 5.481,-36.74288zM269.97333,251.51509c10.04455,-5.64597 16.75779,-12.14913 25.50536,-24.70844l5.49651,-7.89244l0.16565,16.69373c0.13018,13.16854 -0.00758,16.86628 -0.65297,17.51098c-0.64471,0.64573 -4.34589,0.78315 -17.52614,0.65297l-16.70855,-0.16565z" data-paper-data="{&quot;isPathIcon&quot;:true}" />
  </g>
</svg>
